<svg xmlns="http://www.w3.org/2000/svg" width="512" height="512"><path d="M112 456h288a8 8 0 008-8v-64a32.036 32.036 0 00-32-32h-8v-64a24.028 24.028 0 00-24-24h-8v-17.137a27.363 27.363 0 0020-26.063c0-11.85-16.146-40.378-21.1-48.839a8 8 0 00-13.81 0C316.146 180.422 300 208.95 300 220.8a27.363 27.363 0 0020 26.063V264h-56v-17.137a27.363 27.363 0 0020-26.063c0-11.85-16.146-40.378-21.1-48.839a8 8 0 00-13.81 0C244.146 180.422 228 208.95 228 220.8a27.363 27.363 0 0020 26.063V264h-56v-17.137a27.363 27.363 0 0020-26.063c0-11.85-16.146-40.378-21.095-48.839a8 8 0 00-13.81 0C172.146 180.422 156 208.95 156 220.8a27.363 27.363 0 0020 26.063V264h-8a24.028 24.028 0 00-24 24v64h-8a32.036 32.036 0 00-32 32v64a8 8 0 008 8zm204-235.2c0-3.488 5.049-15.2 12-28.344 6.951 13.147 12 24.856 12 28.344 0 6.176-5.383 11.2-12 11.2s-12-5.024-12-11.2zm-72 0c0-3.488 5.049-15.2 12-28.344 6.951 13.147 12 24.856 12 28.344 0 6.176-5.383 11.2-12 11.2s-12-5.024-12-11.2zm-72 0c0-3.488 5.049-15.2 12-28.344 6.951 13.147 12 24.856 12 28.344 0 6.176-5.383 11.2-12 11.2s-12-5.024-12-11.2zM120 440v-39.06c3.895 1.086 6.438 3.029 9.524 5.4 5.6 4.3 12.563 9.657 27.278 9.657 14.177 0 22.391-4.838 29.639-9.106 6.539-3.852 11.7-6.894 21.52-6.894s15.006 3.044 21.565 6.9c7.264 4.267 15.495 9.1 29.674 9.1 14.724 0 21.676-5.358 27.262-9.664 4.773-3.678 8.222-6.336 17.494-6.336 9.29 0 12.755 2.661 17.551 6.345 5.6 4.3 12.571 9.655 27.294 9.655 14.183 0 22.4-4.837 29.655-9.1 4.51-2.655 8.367-4.924 13.544-6.079V440zm48-160h176a8.009 8.009 0 018 8v5.8c-6.364 1.508-9.9 4.694-12.666 7.2-2.886 2.615-4.335 3.928-9.922 3.928-6.395 0-9.643-2.014-14.139-4.8-5.175-3.208-11.616-7.2-22.567-7.2s-17.4 3.989-22.585 7.194c-4.517 2.79-7.779 4.806-14.175 4.806-6.379 0-9.62-2.012-14.106-4.8-5.17-3.209-11.6-7.2-22.546-7.2-11.749 0-16.9 4.664-20.664 8.069-2.892 2.617-4.343 3.931-9.924 3.931-6.385 0-9.638-2.014-14.14-4.8-3.768-2.333-8.216-5.073-14.566-6.4V288a8.009 8.009 0 018-8zm-8 30.382a41.248 41.248 0 016.144 3.354c5.179 3.206 11.626 7.2 22.562 7.2 11.746 0 16.9-4.663 20.661-8.069 2.892-2.618 4.344-3.931 9.927-3.931 6.379 0 9.621 2.011 14.107 4.8 5.17 3.209 11.6 7.2 22.545 7.2s17.4-3.99 22.584-7.194c4.517-2.791 7.781-4.806 14.176-4.806s9.643 2.012 14.138 4.8c5.176 3.208 11.616 7.2 22.568 7.2 11.759 0 16.907-4.665 20.666-8.073.7-.633 1.313-1.188 1.922-1.668V352H160zM136 368h240a16.019 16.019 0 0116 16v.572c-9.5 1.395-15.892 5.14-21.659 8.533C363.8 396.958 358.626 400 348.8 400c-9.287 0-12.752-2.661-17.548-6.345-5.6-4.3-12.572-9.655-27.3-9.655s-21.675 5.358-27.261 9.663c-4.773 3.679-8.221 6.337-17.5 6.337-9.826 0-15.009-3.044-21.569-6.9-7.263-4.266-15.494-9.1-29.67-9.1s-22.392 4.838-29.64 9.106c-6.539 3.852-11.7 6.894-21.519 6.894-9.276 0-12.736-2.66-17.526-6.343-4.467-3.434-9.82-7.531-19.276-9.047V384A16.019 16.019 0 01136 368z"/><path d="M472 48h-24v-8a24 24 0 00-48 0v8h-64v-8a24 24 0 00-48 0v8h-64v-8a24 24 0 00-48 0v8h-64v-8a24 24 0 00-48 0v8H40a24.028 24.028 0 00-24 24v400a24.028 24.028 0 0024 24h432a24.028 24.028 0 0024-24V72a24.028 24.028 0 00-24-24zm-56-8a8 8 0 0116 0v32a8 8 0 01-16 0zm-112 0a8 8 0 0116 0v32a8 8 0 01-16 0zm-112 0a8 8 0 0116 0v32a8 8 0 01-16 0zM80 40a8 8 0 0116 0v32a8 8 0 01-16 0zm400 432a8.009 8.009 0 01-8 8H40a8.009 8.009 0 01-8-8V144h448zm0-344H32V72a8.009 8.009 0 018-8h24v8a24 24 0 0048 0v-8h64v8a24 24 0 0048 0v-8h64v8a24 24 0 0048 0v-8h64v8a24 24 0 0048 0v-8h24a8.009 8.009 0 018 8z"/></svg>