<svg height="512" viewBox="0 0 511.999 511.999" width="512" xmlns="http://www.w3.org/2000/svg"><path d="M356.523 295.576c40.901-31.503 64.359-79.138 64.359-130.692 0-38.253-13.397-75.531-37.724-104.968a7.5 7.5 0 00-10.559-1.003 7.5 7.5 0 00-1.004 10.559c22.109 26.754 34.286 60.639 34.286 95.412 0 46.864-21.327 90.168-58.512 118.808-10.192 7.85-16.038 19.637-16.038 32.338v15.303H180.667v-15.301c0-12.7-5.854-24.493-16.059-32.356-37.684-29.033-58.999-72.94-58.481-120.461.443-40.837 16.83-78.758 46.142-106.778C181.622 28.376 220.3 13.684 261.216 15.09c32.959 1.126 63.888 12.737 89.442 33.579a7.5 7.5 0 009.481-11.624C332.022 14.114 297.993 1.338 261.728.099c-44.934-1.524-87.527 14.62-119.825 45.496-32.255 30.835-50.287 72.548-50.776 117.458-.286 26.368 5.47 51.621 17.108 75.059 11.086 22.324 27.414 42.189 47.219 57.447 6.49 5.001 10.213 12.463 10.213 20.474v16.504c-9.608 3.16-16.566 12.212-16.566 22.864s6.958 19.704 16.566 22.863v61.103c0 19.832 14.692 36.291 33.763 39.078 3.361 19.04 20.014 33.554 40.004 33.554h33.133c19.99 0 36.643-14.514 40.004-33.554 19.07-2.788 33.763-19.247 33.763-39.078v-61.103c9.608-3.16 16.566-12.212 16.566-22.863 0-10.652-6.958-19.704-16.566-22.864v-16.506c-.001-8.012 3.714-15.467 10.189-20.455zm-83.957 201.423h-33.133c-11.525 0-21.3-7.647-24.515-18.133h82.162c-3.214 10.486-12.989 18.133-24.514 18.133zm34.267-33.133H205.167c-11.308 0-20.846-7.702-23.656-18.133h148.978c-2.811 10.432-12.349 18.133-23.656 18.133zm24.5-33.133H180.667V412.6h150.666zm16.566-75.333c0 4.999-4.067 9.066-9.066 9.066h-110.9c-4.143 0-7.5 3.358-7.5 7.5s3.357 7.5 7.5 7.5h103.4V397.6H180.667v-18.133h17.351c4.143 0 7.5-3.358 7.5-7.5s-3.357-7.5-7.5-7.5h-24.851c-4.999 0-9.066-4.067-9.066-9.066 0-5 4.067-9.067 9.066-9.067h165.666c4.999-.001 9.066 4.067 9.066 9.066zM64.701 164.884a7.5 7.5 0 00-7.5-7.5H24.067c-4.143 0-7.5 3.358-7.5 7.5s3.357 7.5 7.5 7.5h33.134a7.5 7.5 0 007.5-7.5zm15.384 92.904L51.39 274.355a7.5 7.5 0 007.5 12.99l28.694-16.567a7.5 7.5 0 00-7.499-12.99zm380.524 16.567l-28.694-16.567a7.496 7.496 0 00-10.245 2.745 7.5 7.5 0 002.745 10.245l28.694 16.567a7.497 7.497 0 0010.245-2.745 7.5 7.5 0 00-2.745-10.245zm27.323-116.971h-33.134a7.5 7.5 0 000 15h33.134c4.143 0 7.5-3.358 7.5-7.5s-3.357-7.5-7.5-7.5zm-59.76-84.398a7.463 7.463 0 003.743-1.006l28.694-16.566a7.5 7.5 0 00-7.5-12.99L424.415 58.99a7.5 7.5 0 003.757 13.996zM51.39 55.413l28.694 16.566a7.498 7.498 0 0010.245-2.746 7.5 7.5 0 00-2.745-10.245L58.89 42.423a7.5 7.5 0 00-7.5 12.99z"/><path d="M256 140.817c-13.27 0-24.066 10.796-24.066 24.067 0 13.27 10.796 24.066 24.066 24.066 13.271 0 24.066-10.796 24.066-24.066S269.27 140.817 256 140.817zm0 33.133c-4.999 0-9.066-4.067-9.066-9.066s4.067-9.067 9.066-9.067 9.066 4.067 9.066 9.067c0 4.999-4.067 9.066-9.066 9.066z"/><path d="M256 107.684c-31.54 0-57.2 25.66-57.2 57.2s25.66 57.2 57.2 57.2 57.2-25.66 57.2-57.2-25.66-57.2-57.2-57.2zm0 99.4c-23.27 0-42.2-18.931-42.2-42.2s18.931-42.2 42.2-42.2 42.2 18.931 42.2 42.2-18.931 42.2-42.2 42.2z"/><path d="M367.953 193.8c6.671-1.335 11.513-7.24 11.513-14.043v-29.745c0-6.803-4.842-12.709-11.513-14.043l-13.932-2.786a102.578 102.578 0 00-6.295-15.191l7.883-11.824c3.774-5.661 3.021-13.261-1.789-18.071l-21.033-21.033c-4.814-4.811-12.413-5.562-18.07-1.789l-11.824 7.882a102.499 102.499 0 00-15.19-6.294l-2.786-13.932c-1.334-6.671-7.24-11.513-14.044-11.513h-29.744c-6.804 0-12.71 4.842-14.044 11.513l-2.786 13.932a102.517 102.517 0 00-15.19 6.294l-11.823-7.882c-5.66-3.773-13.26-3.022-18.072 1.789L158.18 88.096c-4.812 4.81-5.564 12.41-1.79 18.071l7.883 11.824a102.578 102.578 0 00-6.295 15.191l-13.932 2.786c-6.671 1.334-11.513 7.24-11.513 14.043v29.745c0 6.803 4.842 12.709 11.513 14.043l13.932 2.786a102.533 102.533 0 006.295 15.191L156.39 223.6c-3.774 5.661-3.021 13.261 1.789 18.071l21.033 21.033c4.811 4.81 12.41 5.564 18.07 1.789l11.824-7.883a102.61 102.61 0 0015.19 6.295l2.786 13.932c1.334 6.671 7.24 11.513 14.044 11.513h29.744c6.804 0 12.71-4.842 14.044-11.513l2.786-13.932a102.522 102.522 0 0015.19-6.295l11.823 7.883c5.661 3.774 13.26 3.021 18.072-1.79l21.031-21.032c4.812-4.81 5.565-12.41 1.79-18.071l-7.883-11.824a102.533 102.533 0 006.295-15.191zm-21.298-11.038a7.5 7.5 0 00-5.764 5.378 87.459 87.459 0 01-8.422 20.321 7.498 7.498 0 00.273 7.88l10.078 15.117-20.246 20.247-15.117-10.078a7.5 7.5 0 00-7.88-.273 87.535 87.535 0 01-20.321 8.421 7.502 7.502 0 00-5.378 5.764l-3.561 17.811h-28.633l-3.562-17.811a7.5 7.5 0 00-5.378-5.764 87.456 87.456 0 01-20.321-8.421 7.498 7.498 0 00-7.88.273l-15.117 10.078-20.246-20.247 10.078-15.117a7.5 7.5 0 00.273-7.88 87.546 87.546 0 01-8.422-20.321 7.501 7.501 0 00-5.764-5.378l-17.811-3.562v-28.632l17.811-3.562a7.5 7.5 0 005.764-5.378 87.484 87.484 0 018.422-20.322 7.5 7.5 0 00-.273-7.88L169.179 98.31l20.246-20.246 15.117 10.078a7.5 7.5 0 007.88.273 87.446 87.446 0 0120.321-8.42 7.5 7.5 0 005.378-5.764l3.562-17.812h28.633l3.561 17.812a7.5 7.5 0 005.378 5.764 87.496 87.496 0 0120.321 8.42 7.5 7.5 0 007.88-.273l15.117-10.078L342.82 98.31l-10.078 15.117a7.502 7.502 0 00-.273 7.88 87.571 87.571 0 018.422 20.322 7.501 7.501 0 005.764 5.378l17.81 3.562V179.2z"/></svg>